<?xml version="1.0" encoding="utf-8"?>
<!-- Svg Vector Icons : http://www.onlinewebfonts.com/icon -->
<!DOCTYPE svg PUBLIC "-//W3C//DTD SVG 1.1//EN" "http://www.w3.org/Graphics/SVG/1.1/DTD/svg11.dtd">
<svg version="1.1" xmlns="http://www.w3.org/2000/svg" xmlns:xlink="http://www.w3.org/1999/xlink" x="0px" y="0px" viewBox="0 0 1000 1000" enable-background="new 0 0 1000 1000" xml:space="preserve">
<metadata> Svg Vector Icons : http://www.onlinewebfonts.com/icon </metadata>
<g><path d="M500,575.2c-57.3,0-114.6-1.3-171.8,0.4c-42.2,1.3-67-40.5-48-77.6c29.2-57,59.3-113.7,89.2-170.4c9.6-18.2,25.1-26.8,45.1-26.8c56.9-0.1,113.8-0.1,170.6,0c20.5,0,35.9,9.1,45.8,27.8c29.4,56.1,58.5,112.2,88.1,168.2c19.1,36.1-3.3,80.6-48.5,79C613.7,573.6,556.8,575.2,500,575.2z"/><path d="M763,888.5c-56.9,0-113.8-1.5-170.6,0.5c-44.8,1.6-66.4-42.7-48-78.3c29.3-56.6,58.8-113,88.6-169.3c9.5-18,24.5-26.9,45-26.8c57.2,0.4,114.5,0.3,171.8,0c20.1-0.1,34.9,8.5,44.1,26.1c30.1,57,60.5,114,89.5,171.7c14.8,29.4,2.7,61.9-24.6,73.1c-7.9,3.2-16,3-24.2,3C877.6,888.6,820.3,888.5,763,888.5z"/><path d="M236.2,888.5c-57.2,0-114.6-1.5-171.8,0.5c-44.3,1.5-66.4-42.3-47.7-78.4c29.3-56.5,58.8-113,88.7-169.3c9.5-18,24.5-26.9,45-26.7c56.8,0.4,113.7,0.4,170.5,0c21.1-0.2,36.3,8.9,46,27.2c29.6,56,59.2,111.9,88,168.2c15.5,30.4,4,64.1-24.1,75.5c-7.9,3.2-16,2.9-24.1,2.9C349.9,888.6,293.1,888.5,236.2,888.5z"/><path d="M232.2,409.3c-4.2-20.2-8.6-40.3-12.5-60.6c-1.6-8.3-4.8-12.4-13.7-13.9c-20.1-3.4-39.9-8.4-60.2-14.4c20-4.3,39.7-9.1,59.7-12.7c9-1.6,12.7-5.7,14.3-14.7c3.6-20.3,8.2-40.5,14-60.5c4.4,20.5,9.1,41,12.8,61.6c1.5,8.3,4.9,11.8,12.8,13.3c20.3,3.9,40.3,8.5,60.3,14.7c-20.3,4.4-40.5,9.1-61,13c-7.7,1.5-10.7,5-12,12.6c-3.7,20.5-8.3,40.7-12.6,61C233.6,409,232.9,409.2,232.2,409.3z"/><path d="M730.9,409.6c18.6-4,37.2-8.7,56-11.9c10.6-1.8,16-6,17.5-17.4c2.3-16.8,6.5-33.4,9.9-50c0.5-2.9,0.9-5.8,3.8-7.6c4.4,21.2,9.1,42.2,13.1,63.4c1.2,6.4,3.8,8.9,10,10.1c20.7,4.1,41.2,9,61.8,15.6c-20.3,4.5-40.5,9.2-60.9,13.2c-6.7,1.3-9.7,3.8-11,10.8c-3.8,20.8-8.5,41.4-13.1,63.5c-5.8-10.2-5.7-21-8.3-30.9c-2.9-11.2-5.3-22.6-7.1-34.1c-0.9-6.2-4-8-9.4-9.1c-20.8-4.2-41.5-8.9-62.2-13.3C731,411.1,730.9,410.4,730.9,409.6z"/><path d="M530.3,198.6c19.8-4.4,39.5-9.4,59.4-12.8c9.1-1.6,11.9-5.8,13.4-14.2c3.7-20.3,8.3-40.4,14.3-60.6c4.3,20.7,8.8,41.4,12.8,62.1c1.3,7.4,4.1,11.2,12.1,12.5c20.1,3.5,40,8.5,62,13.2c-11.2,5.6-22.1,5.8-32.2,8.5c-10.2,2.7-20.6,5.2-31.1,6.6c-7.1,0.9-9.3,4.8-10.5,11c-4.2,21.2-8.6,42.3-14.7,63.5c-4.4-20.8-9-41.6-12.9-62.5c-1.4-7.7-4.8-11-12.2-12.4c-20.3-4-40.5-8.6-60.7-13C530.2,199.9,530.2,199.2,530.3,198.6z"/></g>
</svg>